# xmcd
#
# Track frame offsets:
#	150
#	19800
#	34425
#	47400
#	63450
#	80325
#	93601
#	112653
#	125853
#	140478
#	160630
#	179530
#	193780
#	213505
#	229105
#
# Disc length: 3394 seconds
#
# Revision: 1
# Processed by: cddbd v1.5.2PL0 Copyright (c) Steve Scherf et al.
# Submitted via: audiograbber 1.83.01
#
DISCID=d10d400f
DTITLE=Brooks And Dunn - Brooks And Dunn #1's And Then Some [CD2]
DYEAR=2009
DGENRE=Country
TTITLE0=Indian Summer
TTITLE1=Play Something Country
TTITLE2=My Next Broken Heart
TTITLE3=Cowgirls Don't Cry (Featuring R
TTITLE4=Lost And Found
TTITLE5=Little Miss Honky Tonk
TTITLE6=It's Getting Better All The Tim
TTITLE7=We'll Burn That Bridge
TTITLE8=He's Got You
TTITLE9=Only In America
TTITLE10=I Am That Man
TTITLE11=Husbands And Wives
TTITLE12=Neon Moon
TTITLE13=My Maria
TTITLE14=Believe
EXTD=
EXTT0=
EXTT1=
EXTT2=
EXTT3=
EXTT4=
EXTT5=
EXTT6=
EXTT7=
EXTT8=
EXTT9=
EXTT10=
EXTT11=
EXTT12=
EXTT13=
EXTT14=
PLAYORDER=
